<?xml version="1.0" encoding="utf-8"?>
<!-- Generator: Adobe Illustrator 22.1.0, SVG Export Plug-In . SVG Version: 6.00 Build 0)  -->
<svg version="1.1" xmlns="http://www.w3.org/2000/svg" xmlns:xlink="http://www.w3.org/1999/xlink" x="0px" y="0px" width="4320px"
	 height="747.6px" viewBox="0 0 4320 747.6" style="enable-background:new 0 0 4320 747.6;" xml:space="preserve">
<style type="text/css">
	.st0{fill:#0082BD;}
	.st1{fill:#4D66A0;}
	.st2{fill:#8BD2F5;}
</style>
<g id="BG">
</g>
<g id="_x31_-_SLOW">
</g>
<g id="_x32_-_MEDIUM">
	<path class="st1" d="M1498,10h1002.8c2.8,0,5-2.2,5-5s-2.2-5-5-5H1498c-2.8,0-5,2.2-5,5S1495.2,10,1498,10z"/>
	<path class="st1" d="M4149.5,0c-2.8,0-5,2.2-5,5s2.2,5,5,5h165.3V0H4149.5z"/>
	<path class="st1" d="M3902.1,10h139.5c2.8,0,5-2.2,5-5s-2.2-5-5-5h-139.5c-2.8,0-5,2.2-5,5S3899.3,10,3902.1,10z"/>
	<path class="st1" d="M3307.1,0h-50.7c-2.8,0-5,2.2-5,5s2.2,5,5,5h50.7c2.8,0,5-2.2,5-5S3309.9,0,3307.1,0z"/>
	<path class="st1" d="M1206.7,10h138.6c2.8,0,5-2.2,5-5s-2.2-5-5-5h-138.6c-2.8,0-5,2.2-5,5S1203.9,10,1206.7,10z"/>
	<path class="st1" d="M663.9,0H0v10h663.9c2.8,0,5-2.2,5-5S666.7,0,663.9,0z"/>
	<circle class="st1" cx="1396.7" cy="5" r="5"/>
	<circle class="st1" cx="797.8" cy="5" r="5"/>
	<circle class="st1" cx="841.2" cy="5" r="5"/>
	<path class="st1" d="M2344.3,708.5H1032.9c-2.8,0-5,2.2-5,5s2.2,5,5,5h1311.4c2.8,0,5-2.2,5-5S2347,708.5,2344.3,708.5z"/>
</g>
<g id="_x33_-_FAST">
</g>
<g id="_x34_-_LOCO">
</g>
</svg>
