<?xml version="1.0" encoding="utf-8"?>
<!-- Generator: Adobe Illustrator 22.1.0, SVG Export Plug-In . SVG Version: 6.00 Build 0)  -->
<svg version="1.1" xmlns="http://www.w3.org/2000/svg" xmlns:xlink="http://www.w3.org/1999/xlink" x="0px" y="0px" width="4320px"
	 height="747.6px" viewBox="0 0 4320 747.6" style="enable-background:new 0 0 4320 747.6;" xml:space="preserve">
<style type="text/css">
	.st0{fill:#0082BD;}
	.st1{fill:#4D66A0;}
	.st2{fill:#8BD2F5;}
</style>
<g id="BG">
</g>
<g id="_x31_-_SLOW">
	<path class="st1" d="M1840.9,198.7H0v20h1840.9c5.5,0,10-4.5,10-10S1846.5,198.7,1840.9,198.7z"/>
	<path class="st1" d="M3188.6,198.7c-5.5,0-10,4.5-10,10s4.5,10,10,10H4320v-20H3188.6z"/>
	<path class="st1" d="M2897.4,463.9H1894.6c-8.3,0-15,6.7-15,15s6.7,15,15,15h1002.8c8.3,0,15-6.7,15-15S2905.7,463.9,2897.4,463.9z
		"/>
	<path class="st1" d="M245.9,493.9c8.3,0,15-6.7,15-15s-6.7-15-15-15H0v30H245.9z"/>
	<path class="st1" d="M493.2,463.9H353.7c-8.3,0-15,6.7-15,15s6.7,15,15,15h139.5c8.3,0,15-6.7,15-15S501.5,463.9,493.2,463.9z"/>
	<path class="st1" d="M1088.2,493.9h50.7c8.3,0,15-6.7,15-15s-6.7-15-15-15h-50.7c-8.3,0-15,6.7-15,15S1079.9,493.9,1088.2,493.9z"
		/>
	<path class="st1" d="M3188.6,463.9H3050c-8.3,0-15,6.7-15,15s6.7,15,15,15h138.6c8.3,0,15-6.7,15-15S3196.9,463.9,3188.6,463.9z"/>
	<path class="st1" d="M3731.5,463.9c-8.3,0-15,6.7-15,15s6.7,15,15,15h583.3v-30H3731.5z"/>
	<circle class="st1" cx="2998.6" cy="478.9" r="15"/>
	<circle class="st1" cx="3597.6" cy="478.9" r="15"/>
	<circle class="st1" cx="3554.2" cy="478.9" r="15"/>
</g>
<g id="_x32_-_MEDIUM">
</g>
<g id="_x33_-_FAST">
</g>
<g id="_x34_-_LOCO">
</g>
</svg>
